<?xml version="1.0" encoding="utf-8"?>
<!-- Generator: Adobe Illustrator 28.2.0, SVG Export Plug-In . SVG Version: 6.00 Build 0)  -->
<svg version="1.1" id="Layer_1" xmlns="http://www.w3.org/2000/svg" xmlns:xlink="http://www.w3.org/1999/xlink" x="0px" y="0px"
	 viewBox="0 0 1000 220.41" style="enable-background:new 0 0 1000 220.41;" xml:space="preserve">
<style type="text/css">
	.st0{fill:url(#SVGID_1_);}
	.st1{fill:url(#SVGID_00000122679102481782357480000016920605884073418152_);}
	.st2{fill:url(#SVGID_00000122687332455866793820000011297860442730013340_);}
	.st3{fill:none;}
	.st4{fill:#FFFFFF;}
	.st5{fill:url(#SVGID_00000050629961631932088490000009891090086041431189_);}
</style>
<g>
	<g>
		<g>
			
				<linearGradient id="SVGID_1_" gradientUnits="userSpaceOnUse" x1="11185.9795" y1="-203.3497" x2="11297.9941" y2="-203.3497" gradientTransform="matrix(-1 0 0 -1 11353.0557 -123.4712)">
				<stop  offset="0" style="stop-color:#003AF5"/>
				<stop  offset="0.5114" style="stop-color:#0A0D98"/>
				<stop  offset="0.9441" style="stop-color:#2A74F7"/>
			</linearGradient>
			<path class="st0" d="M55.06,110.56L103.19,16c3.49-6.05,12.21-6.05,15.7,0l48.18,94.66l-55.93,37.64L55.06,110.56z"/>
			
				<linearGradient id="SVGID_00000155135388930583344270000014426985841024078012_" gradientUnits="userSpaceOnUse" x1="123.2924" y1="75.5665" x2="25" y2="207.2918">
				<stop  offset="0" style="stop-color:#2A74F7"/>
				<stop  offset="0.3833" style="stop-color:#0A0D98"/>
				<stop  offset="0.581" style="stop-color:#003AF5"/>
			</linearGradient>
			<path style="fill:url(#SVGID_00000155135388930583344270000014426985841024078012_);" d="M11.18,196.78l43.88-86.23l56.08,37.74
				l-0.06,0.04l-0.04-0.03l-88.62,59.68C15.23,211.69,7.51,204,11.18,196.78z"/>
			
				<linearGradient id="SVGID_00000168083542904869359810000003903250023495541408_" gradientUnits="userSpaceOnUse" x1="105.8508" y1="88.3999" x2="202.583" y2="207.8665">
				<stop  offset="0.1788" style="stop-color:#48AAAD"/>
				<stop  offset="0.2877" style="stop-color:#304F5B"/>
				<stop  offset="0.3208" style="stop-color:#2C3E4C"/>
				<stop  offset="0.536" style="stop-color:#59788E"/>
				<stop  offset="1" style="stop-color:#587C90"/>
			</linearGradient>
			<path style="fill:url(#SVGID_00000168083542904869359810000003903250023495541408_);" d="M111.14,148.29l55.93-37.64l43.84,86.13
				c3.64,7.15-3.92,14.77-11.07,11.29l0.01-0.09L111.14,148.29z"/>
			<line class="st3" x1="22.43" y1="207.99" x2="111.09" y2="148.33"/>
		</g>
	</g>
	<g>
		<path class="st4" d="M231.88,121.09h-21.23l28.86-76.22h21.78l28.86,76.22H268.9l-4.9-13.61h-27.22L231.88,121.09z M241.68,93.32
			h17.42l-8.71-25.59L241.68,93.32z M306.47,44.86h45.74c7.62,0,13.16,1.73,16.6,5.17c3.45,3.45,5.17,8.98,5.17,16.61v10.89
			c0,7.62-1.72,13.16-5.17,16.61c-3.45,3.45-8.98,5.17-16.6,5.17h-26.13v21.78h-19.6V44.86z M354.38,66.64
			c0-4.36-2.17-6.53-6.53-6.53h-21.78v23.95h21.78c4.36,0,6.53-2.18,6.53-6.53V66.64z M394.67,44.86h45.74
			c7.62,0,13.16,1.73,16.6,5.17c3.45,3.45,5.17,8.98,5.17,16.61v10.89c0,7.62-1.72,13.16-5.17,16.61c-3.45,3.45-8.98,5.17-16.6,5.17
			h-26.13v21.78h-19.6V44.86z M442.58,66.64c0-4.36-2.17-6.53-6.53-6.53h-21.78v23.95h21.78c4.36,0,6.53-2.18,6.53-6.53V66.64z
			 M568.9,44.86c8.2,0,14.43,2.12,18.67,6.37c4.25,4.25,6.37,10.47,6.37,18.67v26.13c0,8.2-2.12,14.43-6.37,18.67
			c-4.24,4.25-10.47,6.37-18.67,6.37h-42.47V44.86H568.9z M574.34,69.91c0-6.53-3.27-9.8-9.8-9.8h-18.51v45.73h18.51
			c6.53,0,9.8-3.27,9.8-9.8V69.91z M676.16,121.09h-60.43V44.86h60.43v15.25h-40.83v14.7h32.12v15.25h-32.12v15.79h40.83V121.09z
			 M693.47,105.3c19.89,1.09,33.36,1.63,40.4,1.63c1.67,0,2.99-0.49,3.98-1.47c0.98-0.98,1.47-2.31,1.47-3.98v-9.8h-25.05
			c-7.62,0-13.16-1.72-16.6-5.17c-3.45-3.45-5.17-8.98-5.17-16.61v-3.27c0-7.62,1.72-13.16,5.17-16.61
			c3.44-3.45,8.98-5.17,16.6-5.17h38.22v15.25h-33.86c-4.36,0-6.54,2.18-6.54,6.53v2.18c0,4.36,2.18,6.53,6.54,6.53h19.6
			c7.11,0,12.34,1.67,15.68,5.01c3.34,3.34,5.01,8.57,5.01,15.68v5.44c0,7.12-1.67,12.34-5.01,15.68
			c-3.34,3.34-8.57,5.01-15.68,5.01c-3.7,0-7.62-0.07-11.76-0.22l-10.02-0.43c-7.4-0.36-15.06-0.87-22.98-1.53V105.3z
			 M815.54,121.09h-39.2v-15.25h9.8V60.11h-9.8V44.86h39.2v15.25h-9.8v45.73h9.8V121.09z M901.56,119.45
			c-16.99,1.81-32.6,2.72-46.82,2.72c-7.11,0-12.34-1.67-15.68-5.01c-3.34-3.34-5.01-8.56-5.01-15.68V66.64
			c0-7.62,1.72-13.16,5.17-16.61c3.45-3.45,8.98-5.17,16.61-5.17h39.2v15.25h-34.85c-4.35,0-6.53,2.18-6.53,6.53v34.84
			c0,1.67,0.49,2.99,1.47,3.98c0.98,0.98,2.3,1.47,3.97,1.47c8.35,0,15.97-0.18,22.87-0.54V90.6h-14.16V77.53h33.76V119.45z
			 M989.77,121.09h-20.69l-26.13-45.74v45.74h-19.6V44.86h20.69l26.13,45.73V44.86h19.6V121.09z"/>
		
			<linearGradient id="SVGID_00000026878548089974333720000003852645651634988426_" gradientUnits="userSpaceOnUse" x1="600.2054" y1="208.9462" x2="600.2054" y2="155.6039">
			<stop  offset="0" style="stop-color:#587C90"/>
			<stop  offset="0.3396" style="stop-color:#59788E"/>
			<stop  offset="0.8212" style="stop-color:#48AAAD"/>
		</linearGradient>
		<path style="fill:url(#SVGID_00000026878548089974333720000003852645651634988426_);" d="M341.83,207.09
			c-11.56,1.23-22.18,1.85-31.86,1.85c-4.84,0-8.4-1.14-10.67-3.41c-2.27-2.27-3.41-5.83-3.41-10.67v-23.71
			c0-5.19,1.17-8.95,3.52-11.3c2.34-2.35,6.11-3.52,11.29-3.52h26.67v10.37h-23.71c-2.97,0-4.45,1.48-4.45,4.45v23.71
			c0,1.14,0.33,2.04,1,2.71c0.67,0.67,1.57,1,2.7,1c5.68,0,10.87-0.12,15.56-0.37v-10.74h-9.63v-8.89h22.97V207.09z M451.48,197.83
			h27.04v10.37h-40.38v-51.86h13.33V197.83z M619.28,194.13c0,5.19-1.17,8.95-3.52,11.3c-2.34,2.35-6.11,3.52-11.3,3.52h-18.52
			c-5.19,0-8.95-1.17-11.29-3.52c-2.35-2.35-3.52-6.11-3.52-11.3v-23.71c0-5.19,1.17-8.95,3.52-11.3c2.34-2.35,6.11-3.52,11.29-3.52
			h18.52c5.19,0,8.96,1.17,11.3,3.52c2.35,2.35,3.52,6.11,3.52,11.3V194.13z M605.95,170.42c0-2.96-1.48-4.44-4.45-4.44h-12.59
			c-2.97,0-4.45,1.48-4.45,4.44v23.71c0,2.96,1.48,4.45,4.45,4.45h12.59c2.96,0,4.45-1.48,4.45-4.45V170.42z M715.59,156.34h31.12
			c5.19,0,8.95,1.17,11.29,3.52c2.35,2.35,3.52,6.11,3.52,11.3v6.67c0,4.1-0.68,7.29-2.04,9.56c-1.36,2.27-3.52,3.78-6.48,4.52
			l9.26,16.3h-14.45l-8.52-15.56h-10.37v15.56h-13.34V156.34z M748.19,171.16c0-2.96-1.48-4.45-4.45-4.45h-14.82v15.56h14.82
			c2.97,0,4.45-1.48,4.45-4.45V171.16z M851.91,156.34h14.08l12.22,25.19l12.23-25.19h14.08l-19.64,38.15v13.71h-13.33V194.5
			L851.91,156.34z"/>
	</g>
</g>
</svg>
